<svg width="98" height="118" viewBox="0 0 98 118" fill="none" xmlns="http://www.w3.org/2000/svg">
<path d="M89.8021 78.8354C91.4231 74.362 92.2462 69.5851 92.2462 64.6087V18.4851C92.2462 17.77 91.9086 17.0969 91.3354 16.6692C90.7625 16.2414 90.0212 16.1096 89.3356 16.313C75.3288 20.4718 53.0595 17.1712 48.6078 2.34975C48.3201 1.39162 47.4385 0.735944 46.4385 0.735718C46.4382 0.735718 46.4382 0.735718 46.438 0.735718C45.4382 0.735718 44.5564 1.39139 44.2684 2.34884C39.8111 17.1706 17.5393 20.4718 3.53432 16.313C2.84897 16.1096 2.10766 16.2417 1.53446 16.6692C0.96148 17.0969 0.623901 17.7698 0.623901 18.4851V33.6478C0.623901 34.8989 1.63822 35.9134 2.88953 35.9134C4.14083 35.9134 5.15515 34.8989 5.15515 33.6478V21.4077C13.004 23.1421 21.8943 22.8614 29.5061 20.5735C37.2772 18.2379 43.1202 14.0531 46.4373 8.54759C49.7526 14.0526 55.5945 18.2379 63.3647 20.5735C70.9761 22.8618 79.8662 23.1418 87.715 21.4077V64.6087C87.715 68.6483 87.1128 72.5331 85.922 76.1928C84.4566 75.4125 82.8912 74.7956 81.2498 74.3679C82.2208 71.2839 82.7138 68.0132 82.7138 64.6084V29.6725C82.7138 29.0504 82.4581 28.4556 82.0063 28.0277C81.5545 27.5997 80.9455 27.3747 80.3256 27.4101C67.6971 28.0945 55.5812 24.5624 47.9166 17.9626C47.0669 17.2313 45.8102 17.2308 44.9606 17.9622C37.2896 24.5624 25.1747 28.095 12.5506 27.4101C11.9291 27.377 11.3217 27.5997 10.87 28.0277C10.4182 28.4556 10.1624 29.0504 10.1624 29.6725V64.6087C10.1624 69.4308 11.0872 73.7844 12.9874 77.914C18.9675 90.9839 34.348 100.097 45.3967 105.815C45.7232 105.984 46.0807 106.068 46.438 106.068C46.7953 106.068 47.1524 105.984 47.4788 105.815C50.2748 104.369 52.8187 102.967 55.1885 101.569C55.6897 103.182 56.3769 104.714 57.2235 106.141C53.9778 108.039 50.4223 109.951 46.4373 111.941C17.5164 97.5065 5.15515 83.3128 5.15515 64.6087V53.9931C5.15515 52.742 4.14083 51.7275 2.88953 51.7275C1.63822 51.7275 0.623901 52.742 0.623901 53.9931V64.6087C0.623901 76.0986 4.84136 86.0655 13.5169 95.0795C20.6276 102.467 30.7703 109.274 45.4368 116.502C45.7527 116.658 46.0954 116.736 46.4382 116.736C46.7817 116.736 47.1252 116.658 47.4412 116.502C52.1141 114.195 56.2255 111.99 59.9502 109.794C63.8949 114.06 69.5406 116.736 75.8012 116.736C87.6975 116.736 97.3761 107.076 97.3761 95.2037C97.3761 88.659 94.4344 82.7878 89.8021 78.8354ZM17.1061 76.0243C15.4828 72.4971 14.6939 68.7629 14.6939 64.6087V32.017C20.3691 32.1031 26.049 31.3982 31.2567 29.9564C37.1202 28.3333 42.2176 25.8631 46.438 22.6022C50.6559 25.8629 55.752 28.3335 61.6152 29.9564C66.8241 31.398 72.504 32.1022 78.1828 32.017V64.6087C78.1828 67.8533 77.6964 70.8403 76.7043 73.692C76.4048 73.6796 76.1041 73.6718 75.8014 73.6718C73.3353 73.6718 70.965 74.088 68.7558 74.852C67.3228 69.1297 63.6851 64.1222 58.6685 60.9513C60.9188 58.2226 62.272 54.731 62.272 50.9297C62.272 42.2155 55.1691 35.1261 46.4385 35.1261C37.7079 35.1261 30.6047 42.2155 30.6047 50.9297C30.6047 54.7294 31.9568 58.2198 34.2057 60.9481C27.5756 65.1246 23.4344 72.4414 23.4344 80.3625V85.106C20.8106 82.327 18.6055 79.3013 17.1061 76.0243ZM35.1359 50.9297C35.1359 44.714 40.2062 39.6573 46.4385 39.6573C52.6705 39.6573 57.7408 44.714 57.7408 50.9297C57.7408 57.1416 52.6705 62.1956 46.4385 62.1956C40.2062 62.1956 35.1359 57.1416 35.1359 50.9297ZM46.438 101.248C40.6482 98.2108 33.7958 94.2514 27.9657 89.3561V80.3625C27.9657 73.5715 31.7661 67.3304 37.7475 64.1252C40.2442 65.7675 43.2306 66.727 46.4382 66.727C49.6457 66.727 52.6313 65.768 55.1278 64.1259C60.0114 66.7515 63.4927 71.4515 64.5558 76.8353C58.3652 80.6241 54.2263 87.4405 54.2263 95.2039C54.2263 95.7501 54.2472 96.2916 54.2875 96.8277C51.8882 98.287 49.3022 99.7438 46.438 101.248ZM75.8012 112.204C66.4034 112.204 58.7576 104.578 58.7576 95.2037C58.7576 85.8294 66.4034 78.2031 75.8012 78.2031C85.199 78.2031 92.8448 85.8294 92.8448 95.2037C92.8448 104.578 85.1992 112.204 75.8012 112.204Z" fill="white"/>
<path d="M84.943 87.9897C83.9846 87.1848 82.5555 87.3096 81.7509 88.268L73.1733 98.4834L69.5802 95.4393C68.6257 94.631 67.1956 94.7486 66.387 95.7035C65.5782 96.6583 65.6965 98.0876 66.6512 98.8967L71.9804 103.412C72.3912 103.76 72.9105 103.949 73.4447 103.949C73.5086 103.949 73.5725 103.946 73.6366 103.94C74.237 103.889 74.7925 103.601 75.1799 103.14L85.2207 91.182C86.0259 90.2234 85.9013 88.7945 84.943 87.9897Z" fill="white"/>
<path d="M2.88947 46.5862C4.14077 46.5862 5.15509 45.5717 5.15509 44.3206V44.3142C5.15509 43.0632 4.14077 42.052 2.88947 42.052C1.63816 42.052 0.62384 43.0695 0.62384 44.3208C0.62384 45.5721 1.63816 46.5862 2.88947 46.5862Z" fill="white"/>
</svg>
