<svg width="128" height="117" viewBox="0 0 128 117" fill="none" xmlns="http://www.w3.org/2000/svg">
<path d="M75.1723 49.6549H85.6388C87.0863 49.6549 88.2638 48.4655 88.2638 47.0034V36.4309C88.2638 34.9687 87.0863 33.7793 85.6388 33.7793H75.1723C73.7248 33.7793 72.5473 34.9687 72.5473 36.4309V47.0034C72.5473 48.4655 73.7248 49.6549 75.1723 49.6549ZM76.2973 37.5673H84.5138V45.867H76.2973V37.5673Z" fill="white"/>
<path d="M95.6626 67.9271C94.6268 67.9271 93.7876 68.7751 93.7876 69.8211V83.5709C93.7876 84.6169 94.6268 85.4649 95.6626 85.4649H105.984C107.02 85.4649 107.859 84.6169 107.859 83.5709C107.859 82.5249 107.02 81.6769 105.984 81.6769H97.5376V69.8211C97.5376 68.7751 96.6983 67.9271 95.6626 67.9271Z" fill="white"/>
<path d="M119.6 61.6321C114.605 56.0782 107.938 52.4529 100.679 51.3049V10.4506C100.679 7.31745 98.1555 4.76865 95.054 4.76865H88.2637V2.1297C88.2637 1.08372 87.4245 0.235718 86.3887 0.235718C85.353 0.235718 84.5137 1.08372 84.5137 2.1297V4.76865H32.5C31.4643 4.76865 30.625 5.61665 30.625 6.66264C30.625 7.70862 31.4643 8.55662 32.5 8.55662H84.514V12.7065C84.514 13.7525 85.3532 14.6005 86.389 14.6005C87.4248 14.6005 88.264 13.7525 88.264 12.7065V8.55662H95.0543C96.0882 8.55662 96.9293 9.40614 96.9293 10.4506V22.9001H3.75V10.4506C3.75 9.40614 4.591 8.55662 5.625 8.55662H12.4152V12.7065C12.4152 13.7525 13.2545 14.6005 14.2902 14.6005C15.326 14.6005 16.1653 13.7525 16.1653 12.7065V8.55662H23.75C24.7857 8.55662 25.625 7.70862 25.625 6.66264C25.625 5.61665 24.7857 4.76865 23.75 4.76865H16.1653V2.1297C16.1653 1.08372 15.326 0.235718 14.2902 0.235718C13.2545 0.235718 12.4152 1.08372 12.4152 2.1297V4.76865H5.625C2.5235 4.76865 0 7.31771 0 10.4506V97.4613C0 100.594 2.5235 103.143 5.625 103.143H14.5C15.5358 103.143 16.375 102.295 16.375 101.249C16.375 100.203 15.5358 99.3553 14.5 99.3553H5.625C4.591 99.3553 3.75 98.5057 3.75 97.4613V26.6884H96.9293V59.197C96.5098 59.175 96.0878 59.1636 95.663 59.1636C93.0967 59.1636 90.6083 59.5768 88.264 60.3417V57.2823C88.264 55.8201 87.0865 54.6307 85.639 54.6307H75.1725C73.725 54.6307 72.5475 55.8201 72.5475 57.2823V67.8548C72.5475 69.3169 73.725 70.5063 75.1725 70.5063H75.259C73.6905 72.9968 72.5482 75.8014 71.9577 78.8298C71.7575 79.8561 72.419 80.8518 73.435 81.0541C74.4512 81.2574 75.437 80.5882 75.637 79.5619C77.5137 69.9374 85.9358 62.9516 95.663 62.9516C106.919 62.9516 116.076 72.2013 116.076 83.571C116.076 94.9408 106.919 104.19 95.663 104.19C85.9753 104.19 77.5598 97.2388 75.6523 87.661C75.448 86.6355 74.4595 85.9711 73.4443 86.1777C72.429 86.384 71.7718 87.3825 71.976 88.408C72.8025 92.5584 74.6643 96.289 77.2505 99.3555H23.25C22.2143 99.3555 21.375 100.204 21.375 101.249C21.375 102.295 22.2143 103.143 23.25 103.143H69.7945C75.9017 111.36 85.4985 116.236 95.663 116.236C113.493 116.236 128 101.583 128 83.5713C128 75.4471 125.017 67.6558 119.6 61.6321ZM84.514 61.9276C82.1618 63.1673 80.0277 64.789 78.1985 66.7184H76.2975V58.4187H84.514V61.9276ZM95.663 112.447C87.6615 112.447 80.0585 109.025 74.6752 103.143H81.2545C85.3148 106.193 90.325 107.978 95.6628 107.978C108.986 107.978 119.826 97.0289 119.826 83.5705C119.826 71.8493 111.603 62.0326 100.679 59.6937V55.1454C106.868 56.2573 112.541 59.4157 116.824 64.1789C121.613 69.5043 124.25 76.3911 124.25 83.5708C124.25 99.4934 111.426 112.447 95.663 112.447Z" fill="white"/>
<path d="M23.4644 16.0883C23.4644 17.1343 24.3037 17.9823 25.3394 17.9823H75.3394C76.3752 17.9823 77.2144 17.1343 77.2144 16.0883C77.2144 15.0423 76.3752 14.1943 75.3394 14.1943H25.3394C24.3039 14.1943 23.4644 15.0421 23.4644 16.0883Z" fill="white"/>
<path d="M27.5171 76.0688C26.6254 75.5367 25.4759 75.8355 24.9491 76.736L19.4306 86.1711L15.7389 81.6341C15.0814 80.8257 13.8996 80.7091 13.0999 81.3735C12.2999 82.0376 12.1844 83.2311 12.8419 84.0392L18.2339 90.6661C18.5916 91.1058 19.1241 91.3576 19.6821 91.3576C19.7301 91.3576 19.7786 91.3558 19.8269 91.352C20.4366 91.3045 20.9856 90.9591 21.2966 90.427L28.1774 78.6628C28.7044 77.7623 28.4086 76.6009 27.5171 76.0688Z" fill="white"/>
<path d="M15.0403 49.6549H25.5068C26.9543 49.6549 28.1318 48.4655 28.1318 47.0034V36.4309C28.1318 34.9687 26.9543 33.7793 25.5068 33.7793H15.0403C13.5928 33.7793 12.4153 34.9687 12.4153 36.4309V47.0034C12.4153 48.4655 13.5928 49.6549 15.0403 49.6549ZM16.1653 37.5673H24.3818V45.867H16.1653V37.5673Z" fill="white"/>
<path d="M35.0842 49.6549H45.5507C46.9982 49.6549 48.1757 48.4655 48.1757 47.0034V36.4309C48.1757 34.9687 46.9982 33.7793 45.5507 33.7793H35.0842C33.6367 33.7793 32.4592 34.9687 32.4592 36.4309V47.0034C32.4592 48.4655 33.6367 49.6549 35.0842 49.6549ZM36.2092 37.5673H44.4257V45.867H36.2092V37.5673Z" fill="white"/>
<path d="M55.1284 49.6549H65.5952C67.0427 49.6549 68.2202 48.4655 68.2202 47.0034V36.4309C68.2202 34.9687 67.0427 33.7793 65.5952 33.7793H55.1284C53.6809 33.7793 52.5034 34.9687 52.5034 36.4309V47.0034C52.5034 48.4655 53.6809 49.6549 55.1284 49.6549ZM56.2534 37.5673H64.4702V45.867H56.2534V37.5673Z" fill="white"/>
<path d="M12.4153 67.8548C12.4153 69.3169 13.5928 70.5064 15.0403 70.5064H25.5068C26.9543 70.5064 28.1318 69.3169 28.1318 67.8548V57.2823C28.1318 55.8202 26.9543 54.6307 25.5068 54.6307H15.0403C13.5928 54.6307 12.4153 55.8202 12.4153 57.2823V67.8548ZM16.1653 58.4187H24.3818V66.7184H16.1653V58.4187Z" fill="white"/>
<path d="M32.4592 67.8548C32.4592 69.3169 33.6367 70.5064 35.0842 70.5064H45.5507C46.9982 70.5064 48.1757 69.3169 48.1757 67.8548V57.2823C48.1757 55.8202 46.9982 54.6307 45.5507 54.6307H35.0842C33.6367 54.6307 32.4592 55.8202 32.4592 57.2823V67.8548ZM36.2092 58.4187H44.4257V66.7184H36.2092V58.4187Z" fill="white"/>
<path d="M52.5034 67.8548C52.5034 69.3169 53.6809 70.5064 55.1284 70.5064H65.5952C67.0427 70.5064 68.2202 69.3169 68.2202 67.8548V57.2823C68.2202 55.8202 67.0427 54.6307 65.5952 54.6307H55.1284C53.6809 54.6307 52.5034 55.8202 52.5034 57.2823V67.8548ZM56.2534 58.4187H64.4702V66.7184H56.2534V58.4187Z" fill="white"/>
<path d="M32.4592 88.7059C32.4592 90.168 33.6367 91.3574 35.0842 91.3574H45.5507C46.9982 91.3574 48.1757 90.168 48.1757 88.7059V78.1334C48.1757 76.6712 46.9982 75.4818 45.5507 75.4818H35.0842C33.6367 75.4818 32.4592 76.6712 32.4592 78.1334V88.7059ZM36.2092 79.2698H44.4257V87.5695H36.2092V79.2698Z" fill="white"/>
<path d="M52.5034 88.7059C52.5034 90.168 53.6809 91.3574 55.1284 91.3574H65.5952C67.0427 91.3574 68.2202 90.168 68.2202 88.7059V78.1334C68.2202 76.6712 67.0427 75.4818 65.5952 75.4818H55.1284C53.6809 75.4818 52.5034 76.6712 52.5034 78.1334V88.7059ZM56.2534 79.2698H64.4702V87.5695H56.2534V79.2698Z" fill="white"/>
</svg>
