<svg width="116" height="117" viewBox="0 0 116 117" fill="none" xmlns="http://www.w3.org/2000/svg">
<path d="M115.989 65.6767C114.846 54.9904 107.489 46.3893 97.725 43.287C101.495 40.706 103.974 36.3719 103.974 31.4683C103.974 23.5752 97.5526 17.1535 89.6592 17.1535C81.7658 17.1535 75.3442 23.5752 75.3442 31.4683C75.3442 32.7158 75.5053 33.9261 75.8068 35.0802C73.0469 33.1143 69.9773 31.6185 66.7075 30.661C71.3604 27.7488 74.4632 22.5805 74.4632 16.6986C74.4632 7.62091 67.0778 0.235718 58.0003 0.235718C48.9228 0.235718 41.5374 7.62091 41.5374 16.6986C41.5374 22.5805 44.6404 27.7488 49.293 30.661C46.0232 31.6185 42.9539 33.1141 40.194 35.08C40.4952 33.9258 40.6564 32.7156 40.6564 31.4683C40.6564 23.5752 34.2347 17.1535 26.3413 17.1535C18.4482 17.1535 12.0265 23.5752 12.0265 31.4683C12.0265 36.3717 14.5058 40.7058 18.2753 43.2868C8.5112 46.3891 1.15407 54.9904 0.0106732 65.6769C-0.0459237 66.205 0.124335 66.7319 0.479352 67.1267C0.834369 67.5215 1.34023 67.7469 1.87089 67.7469L27.3259 67.7467C27.2385 69.1251 27.5133 70.5379 28.1763 71.8495L30.2393 75.9312C30.6359 76.7157 30.7664 77.4552 30.6621 78.328L30.1193 82.8693C29.6969 86.4024 31.6111 89.7175 34.8823 91.1189L37.6733 92.3139L30.9392 106.778C30.559 107.596 30.6633 108.548 31.2124 109.264C31.7611 109.98 32.6528 110.327 33.5413 110.172L40.459 108.964L43.9881 115.037C44.4229 115.784 45.2133 116.236 46.0688 116.236C46.1063 116.236 46.1439 116.235 46.1818 116.233C47.0829 116.192 47.879 115.659 48.2595 114.842L54.7717 100.854L56.7832 100.246C57.6251 99.9919 58.3759 99.9919 59.2171 100.246L61.2291 100.854L67.7412 114.841C68.1218 115.659 68.9176 116.192 69.8166 116.233C69.8545 116.235 69.8924 116.236 69.93 116.236C70.7874 116.236 71.5779 115.784 72.0136 115.035L75.5418 108.964L82.4592 110.172C83.347 110.328 84.2392 109.98 84.7891 109.264C85.3375 108.548 85.4418 107.596 85.0613 106.778L78.3272 92.3142L81.1185 91.1186C84.3896 89.7177 86.3036 86.4024 85.8812 82.8693L85.3387 78.328C85.2344 77.4552 85.3646 76.7157 85.7613 75.9312L87.8245 71.8495C88.4875 70.5379 88.7623 69.1251 88.6748 67.7467H114.129C114.66 67.7467 115.166 67.5212 115.521 67.1265C115.875 66.7317 116.046 66.2045 115.989 65.6767ZM89.6592 20.8955C95.4894 20.8955 100.232 25.6384 100.232 31.4683C100.232 37.2973 95.491 42.0395 89.6622 42.0412C89.6613 42.0412 89.6601 42.0412 89.659 42.0412C89.6583 42.0412 89.6573 42.0412 89.6566 42.0412C83.8279 42.0398 79.0861 37.2973 79.0861 31.4683C79.0861 25.6384 83.829 20.8955 89.6592 20.8955ZM45.2793 16.6986C45.2793 9.68412 50.9858 3.97766 58.0003 3.97766C65.0148 3.97766 70.7212 9.68412 70.7212 16.6986C70.7212 23.7101 65.0192 29.4149 58.0087 29.4194C58.0059 29.4194 58.0031 29.4194 58.0003 29.4194C57.9975 29.4194 57.9949 29.4194 57.9921 29.4194C50.9813 29.4147 45.2793 23.7101 45.2793 16.6986ZM58.0003 33.1615C58.0031 33.1615 58.0056 33.1613 58.0085 33.1613C66.6243 33.1639 74.5441 37.1781 79.6285 44.0062C77.8307 44.7433 76.1096 45.6814 74.4898 46.8171C74.0953 46.7347 73.6912 46.6781 73.2777 46.655L68.7116 46.401C67.8339 46.3521 67.1283 46.0953 66.4245 45.5684L62.7633 42.8279C59.9145 40.695 56.086 40.6952 53.2375 42.8279L49.576 45.5687C48.8723 46.0953 48.1671 46.3521 47.2892 46.401L42.7228 46.655C42.3091 46.6779 41.905 46.7347 41.5107 46.8171C39.8911 45.6816 38.1696 44.7433 36.3721 44.0062C41.4567 37.1781 49.3765 33.1639 57.9923 33.1613C57.9946 33.1613 57.9975 33.1615 58.0003 33.1615ZM15.7685 31.4683C15.7685 25.6384 20.5114 20.8955 26.3413 20.8955C32.1715 20.8955 36.9144 25.6384 36.9144 31.4683C36.9144 37.2976 32.1727 42.04 26.3437 42.0412C26.343 42.0412 26.342 42.0412 26.3411 42.0412C26.3402 42.0412 26.3392 42.0412 26.338 42.0412C20.5097 42.0395 15.7685 37.2973 15.7685 31.4683ZM29.83 62.4687C29.3321 62.9362 28.906 63.453 28.5526 64.005L4.04823 64.0052C6.15424 53.4829 15.3943 45.7843 26.339 45.7834H26.3416C26.3416 45.7834 26.3432 45.7834 26.3439 45.7834C30.3836 45.7838 34.2576 46.8238 37.6927 48.8122C36.5964 49.8522 35.7923 51.2106 35.4251 52.778L34.3818 57.2314C34.1816 58.0871 33.8063 58.737 33.1652 59.3388L29.83 62.4687ZM45.9421 110.953L43.039 105.957C42.6452 105.279 41.8706 104.92 41.0993 105.054L35.4066 106.048L40.8544 94.347C40.8865 94.3926 40.9192 94.4366 40.9506 94.4843L43.4537 98.3118C44.9729 100.635 47.4962 101.942 50.1492 101.916L45.9421 110.953ZM74.901 105.054C74.1292 104.92 73.3551 105.279 72.9612 105.957L70.0582 110.953L65.8502 101.914C65.8761 101.914 65.9021 101.917 65.928 101.917C68.553 101.917 71.0419 100.612 72.5464 98.3116L75.05 94.4838C75.0811 94.4361 75.1138 94.3924 75.1458 94.3468L80.5936 106.048L74.901 105.054ZM84.4846 70.1616L82.4211 74.2434C81.6924 75.6862 81.4311 77.1675 81.6229 78.7721L82.1655 83.3134C82.3926 85.2124 81.4031 86.926 79.6451 87.6793L75.4408 89.4794C73.9547 90.116 72.8025 91.0828 71.9179 92.4358L69.4146 96.2636C68.3678 97.864 66.5078 98.5408 64.6775 97.9874L60.2995 96.6644C58.7522 96.1971 57.2479 96.1971 55.7006 96.6644L51.3228 97.9874C49.4916 98.5417 47.6325 97.8644 46.5855 96.2633L44.0823 92.4358C43.1976 91.0831 42.0451 90.116 40.5595 89.4797L36.3552 87.6793C34.597 86.926 33.6075 85.2124 33.8346 83.3134L34.3774 78.7721C34.5692 77.1673 34.3079 75.6859 33.5787 74.2434L31.5157 70.1616C30.653 68.4549 30.9963 66.506 32.3909 65.1968L35.7259 62.0669C36.9048 60.9604 37.657 59.6575 38.0251 58.0843L39.0684 53.6311C39.5045 51.7691 41.0205 50.497 42.9303 50.3909L47.4966 50.1369C49.1106 50.0468 50.5241 49.5325 51.8181 48.5638L55.4796 45.8231C56.2451 45.2499 57.1225 44.9634 58.0003 44.9634C58.8778 44.9634 59.7552 45.2499 60.5207 45.8231L64.182 48.5638C65.476 49.5323 66.8895 50.0468 68.5037 50.1369L73.0698 50.3909C74.9796 50.497 76.4953 51.7691 76.9317 53.6311L77.975 58.0841C78.3436 59.6578 79.0957 60.9604 80.2744 62.0669L83.6092 65.1968C85.0038 66.506 85.3475 68.4546 84.4846 70.1616ZM87.4475 64.005C87.0941 63.4528 86.668 62.936 86.1698 62.4687L82.8351 59.3388C82.194 58.737 81.8187 58.0869 81.6182 57.2309L80.5749 52.778C80.2078 51.2106 79.4037 49.852 78.3073 48.8122C81.7424 46.8238 85.6165 45.7836 89.6564 45.7831H89.659H89.6613C100.606 45.7843 109.845 53.4826 111.952 64.0047H87.4475V64.005ZM58 53.7205C48.1571 53.7205 40.1493 61.7282 40.1493 71.5712C40.1493 81.4144 48.1571 89.4221 58 89.4221C67.843 89.4221 75.8507 81.4144 75.8507 71.5712C75.8507 61.7285 67.843 53.7205 58 53.7205ZM58 85.6804C50.2203 85.6804 43.8913 79.3512 43.8913 71.5714C43.8913 63.7917 50.2203 57.4627 58 57.4627C65.7798 57.4627 72.1088 63.7917 72.1088 71.5714C72.1088 79.3512 65.7798 85.6804 58 85.6804ZM66.2985 66.6349L62.1854 66.6428L60.9218 62.7283C60.5109 61.4562 59.3368 60.6012 57.9991 60.6012C56.6628 60.6019 55.4892 61.4565 55.0785 62.7283L53.8149 66.6428L49.7011 66.6349C49.6992 66.6349 49.6976 66.6349 49.6957 66.6349C48.3617 66.6349 47.1886 67.4869 46.7761 68.7563C46.3628 70.0279 46.813 71.4086 47.8961 72.1921L51.2285 74.6036L49.9495 78.5134C49.5346 79.7838 49.982 81.1653 51.0641 81.952C51.6041 82.344 52.2363 82.5398 52.8682 82.5398C53.5024 82.5398 54.1367 82.3424 54.6772 81.9478L58 79.5237L61.3236 81.9478C62.4034 82.7357 63.8557 82.7367 64.9374 81.9511C66.0185 81.1653 66.4659 79.7838 66.0506 78.5132L64.772 74.6036L68.1042 72.1921C69.1873 71.4084 69.6377 70.0276 69.2245 68.7563C68.8119 67.4866 67.639 66.6349 66.3041 66.6349C66.3022 66.6349 66.3004 66.6349 66.2985 66.6349ZM62.181 71.8595C61.096 72.6449 60.6468 74.0278 61.0633 75.301L61.8474 77.6984L59.8097 76.2121C59.2688 75.8174 58.6345 75.62 58.0003 75.62C57.3662 75.62 56.732 75.8174 56.191 76.2121L54.1533 77.6984L54.9375 75.301C55.3538 74.0282 54.9043 72.6451 53.8191 71.8593L51.776 70.381L54.2985 70.3859H54.3039C55.641 70.3859 56.8148 69.5316 57.2257 68.2589L58.0005 65.8584L58.7751 68.2579C59.1855 69.5311 60.3591 70.3859 61.6973 70.3859H61.7027L64.2248 70.381L62.181 71.8595Z" fill="white"/>
</svg>
